<svg width="13" height="13" viewBox="0 0 13 13" fill="none" xmlns="http://www.w3.org/2000/svg">
<path d="M2.60688 2.60689C2.75535 2.45843 2.95671 2.37502 3.16667 2.37502H10.2917C10.5016 2.37502 10.703 2.45843 10.8515 2.60689C10.9999 2.75536 11.0833 2.95673 11.0833 3.16669V3.95835C11.0833 4.39558 11.4378 4.75002 11.875 4.75002C12.3122 4.75002 12.6667 4.39558 12.6667 3.95835V3.16669C12.6667 2.5368 12.4164 1.93271 11.971 1.48731C11.5256 1.04191 10.9215 0.791687 10.2917 0.791687H3.16667C2.53678 0.791687 1.93269 1.04191 1.48729 1.48731C1.04189 1.93271 0.791672 2.5368 0.791672 3.16669V10.2917C0.791672 10.9215 1.04189 11.5257 1.48729 11.971C1.93269 12.4164 2.53678 12.6667 3.16667 12.6667H3.95834C4.39556 12.6667 4.75001 12.3123 4.75001 11.875C4.75001 11.4378 4.39556 11.0834 3.95834 11.0834H3.16667C2.95671 11.0834 2.75535 10.9999 2.60688 10.8515C2.45842 10.703 2.37501 10.5016 2.37501 10.2917V3.16669C2.37501 2.95672 2.45842 2.75536 2.60688 2.60689Z" fill="black"/>
</svg>
