<svg width="13" height="13" viewBox="0 0 13 13" fill="none" xmlns="http://www.w3.org/2000/svg">
<path fill-rule="evenodd" clip-rule="evenodd" d="M2.70833 0.333313C1.39666 0.333313 0.333328 1.39664 0.333328 2.70831V9.83331C0.333328 11.145 1.39666 12.2083 2.70833 12.2083H9.83333C11.145 12.2083 12.2083 11.145 12.2083 9.83331V2.70831C12.2083 1.39664 11.145 0.333313 9.83333 0.333313H2.70833ZM1.91666 2.70831C1.91666 2.27108 2.27109 1.91665 2.70833 1.91665H9.83333C10.2706 1.91665 10.625 2.27108 10.625 2.70831V9.83331C10.625 10.2706 10.2706 10.625 9.83333 10.625H2.70833C2.27109 10.625 1.91666 10.2706 1.91666 9.83331V2.70831Z" fill="black"/>
</svg>
